<?xml version="1.0" encoding="utf-8"?>
<svg viewBox="0 0 512 512" xmlns="http://www.w3.org/2000/svg">
  <linearGradient id="SVGID_1_" gradientUnits="userSpaceOnUse" x1="256" x2="256" y1="512" y2="0">
    <stop offset="0" stop-color="#fd3a84"/>
    <stop offset="1" stop-color="#ffa68d"/>
  </linearGradient>
  <g>
    <g>
      <path d="M 91 286 C 91 277.729 97.729 271 106 271 C 114.271 271 121 277.729 121 286 C 121 294.284 127.716 301 136 301 C 144.284 301 151 294.284 151 286 C 151 261.187 130.813 241 106 241 C 81.187 241 61 261.187 61 286 C 61 294.284 67.716 301 76 301 C 84.284 301 91 294.284 91 286 Z M 250.488 331 L 81.512 331 C 76.638 331 72.068 333.368 69.257 337.35 C 66.446 341.332 65.745 346.432 67.378 351.024 C 82.257 392.879 121.89 421 166 421 C 210.11 421 249.743 392.879 264.622 351.024 C 266.255 346.432 265.554 341.332 262.743 337.35 C 259.932 333.368 255.362 331 250.488 331 Z M 441.243 61.858 C 445.19 50.571 451.326 40.134 459.281 31.261 C 462.567 27.595 463.845 22.552 462.702 17.764 C 461.558 12.976 458.139 9.054 453.552 7.269 C 444.313 3.674 433.221 0 421 0 C 395.582 0 371.004 11.629 353.664 31.498 C 351.291 31.22 348.732 31 346 31 C 270.94 31 206.221 81.195 186.839 152.312 C 180.013 151.447 173.058 151 166 151 C 74.468 151 0 225.019 0 316 C 0 369.116 26.496 418.835 70.757 450.142 C 66.81 461.429 60.674 471.866 52.719 480.74 C 49.433 484.405 48.155 489.449 49.298 494.237 C 50.442 499.025 53.862 502.947 58.449 504.732 C 67.688 508.326 78.78 512 91 512 C 116.418 512 140.996 500.371 158.336 480.502 C 160.709 480.78 163.268 481 166 481 C 241.866 481 305.927 429.528 325.122 359.674 C 332.031 360.547 339.011 361 346 361 C 437.533 361 512 286.981 512 196 C 512 142.884 485.503 93.164 441.243 61.858 Z M 166 451 C 162.706 451 157.809 450.073 153.259 449.641 C 147.954 449.138 142.765 451.492 139.653 455.828 C 126.609 474.003 106.214 483.052 88.876 481.931 C 95.282 471.141 100.014 459.347 102.83 447.019 C 104.266 440.735 101.526 434.237 96.025 430.877 C 54.682 405.627 30 362.683 30 316 C 30 241.561 91.01 181 166 181 C 240.439 181 301 241.561 301 316 C 301 390.439 240.439 451 166 451 Z M 346 331 C 340.776 331 335.56 330.691 330.391 330.097 C 330.787 325.449 331 320.749 331 316 C 331 242.509 282.7 180.095 216.18 158.811 C 232.504 101.394 285.085 61 346 61 C 349.294 61 354.191 61.927 358.741 62.359 C 364.051 62.87 369.236 60.508 372.347 56.172 C 385.391 37.997 405.786 28.948 423.124 30.069 C 416.718 40.859 411.986 52.653 409.17 64.981 C 407.734 71.265 410.474 77.763 415.975 81.123 C 457.318 106.373 482 149.317 482 196 C 482 270.439 420.99 331 346 331 Z M 226 241 C 201.187 241 181 261.187 181 286 C 181 294.284 187.716 301 196 301 C 204.284 301 211 294.284 211 286 C 211 277.729 217.729 271 226 271 C 234.271 271 241 277.729 241 286 C 241 294.284 247.716 301 256 301 C 264.284 301 271 294.284 271 286 C 271 261.187 250.813 241 226 241 Z" fill="url(#SVGID_1_)"/>
    </g>
  </g>
</svg>