<svg width="512.002" height="512.002" xmlns="http://www.w3.org/2000/svg">
 <defs>
  <linearGradient y2="-0.000001" y1="1" x2="0.499998" x1="0.499998" id="SVGID_1_">
   <stop stop-color="#ffc2cc" offset="0"/>
   <stop stop-color="#fff2f4" offset="1"/>
  </linearGradient>
  <linearGradient y2="0" y1="1" x2="0.5" x1="0.5" id="SVGID_2_">
   <stop stop-color="#fd3a84" offset="0"/>
   <stop stop-color="#ffa68d" offset="1"/>
  </linearGradient>
 </defs>
 <g>
  <title>background</title>
  <rect fill="none" id="canvas_background" height="514" width="514" y="-1" x="-1"/>
 </g>
 <g>
  <title>Layer 1</title>
  <g id="svg_1">
   <g id="svg_2">
    <g id="svg_3">
     <path id="svg_4" fill="url(#SVGID_1_)" d="m441.216,62.793c4.043,-11.396 10.166,-22.943 18.018,-31.791c3.311,-3.75 4.541,-8.877 3.311,-13.711c-1.26,-4.805 -4.805,-8.701 -9.521,-10.371c-11.065,-3.936 -21.787,-5.853 -32.021,-5.918c-26.565,-0.169 -49.839,11.872 -67.266,31.498c-2.549,-0.293 -5.098,-0.498 -7.734,-0.498c-79.951,0 -148.213,57.188 -162.363,135.967c-1.436,7.91 3.691,15.557 11.572,17.285c61.289,13.418 105.791,68.818 105.791,131.748c0,7.5 -0.703,15.293 -2.197,23.848c-1.348,7.852 3.691,15.381 11.455,17.168c11.514,2.637 23.555,3.984 35.742,3.984c90.967,0 166,-74.033 166,-165c-0.002,-53.789 -26.871,-103.155 -70.787,-134.209z"/>
    </g>
   </g>
   <g id="svg_5">
    <g id="svg_6">
     <path id="svg_7" fill="url(#SVGID_2_)" d="m166.001,152.002c-90.901,0 -166,74.099 -166,165c0,53.699 26.8,103.2 70.901,134.099c-4.2,11.4 -10.201,21.901 -18.001,30.901c-3.3,3.6 -4.799,8.699 -3.3,13.799c1.199,4.801 4.801,8.701 9.3,10.201c11.4,3.9 21.899,7 32.1,7c25.8,0 50.1,-12.1 67.2,-31.601c2.701,0.3 5.1,0.601 7.8,0.601c92.329,0 165,-74.797 165,-165c0,-89.345 -72.862,-165 -165,-165zm-105,135c0,-24.9 20.099,-45 45,-45c24.9,0 45,20.1 45,45c0,8.399 -6.599,15 -15,15s-15,-6.601 -15,-15c0,-8.401 -6.599,-15 -15,-15s-15,6.599 -15,15c0,8.399 -6.599,15 -15,15s-15,-6.601 -15,-15zm203.699,65.099c-15,41.7 -54.6,69.9 -98.699,69.9s-83.699,-28.2 -98.699,-69.9c-1.501,-4.799 -0.901,-9.9 2.1,-13.801c2.699,-3.9 7.2,-6.299 11.999,-6.299l169.2,0c4.799,0 9.3,2.398 11.999,6.299c3.001,3.901 3.602,9.002 2.1,13.801zm-8.699,-50.099c-8.401,0 -15,-6.601 -15,-15c0,-8.401 -6.599,-15 -15,-15s-15,6.599 -15,15c0,8.399 -6.599,15 -15,15s-15,-6.601 -15,-15c0,-24.9 20.1,-45 45,-45s45,20.1 45,45c0,8.399 -6.599,15 -15,15z"/>
    </g>
   </g>
  </g>
 </g>
</svg>