<svg xmlns="http://www.w3.org/2000/svg" width="768" height="728.85799"><path d="M466.88391 172.94723h-3.99878V63.4019A63.40187 63.40187 0 00399.48334 0H167.39661a63.40184 63.40184 0 00-63.402 63.40171v600.97441a63.40181 63.40181 0 0063.40181 63.40188H399.483a63.40185 63.40185 0 0063.402-63.40167V250.92349h3.99884l.00007-77.97626z" fill="#e5e5e5"/><path d="M402.04138 16.495H168.837a47.34781 47.34781 0 00-47.34784 47.34774v600.09253a47.34781 47.34781 0 0047.34784 47.34784h233.2044a47.34781 47.34781 0 0047.34784-47.34778V63.84271a47.34777 47.34777 0 00-47.34784-47.3477l-.00002-.00001z" fill="#fff"/><path fill="#e6e6e6" d="M149.43143 128.24738h135.60425v231.65729H149.43143zM308.33337 378.05048h112.70621v262.26761H308.33337zM308.44357 128.24738h113.00354v63.7663H308.44357z"/><path fill="#6c63ff" d="M308.44357 209.77137h113.00354v68.60928H308.44357z"/><path fill="#e6e6e6" d="M308.44357 296.13837h113.00354v63.7663H308.44357zM149.59921 378.05048h135.60425v100.95499H149.59921zM149.59921 498.57563h135.60425v141.95499H149.59921z"/><path d="M593.22124 287.97953c0 22.04505-20.38417 18.71067-45.52931 18.71067s-45.5293 3.33438-45.5293-18.71067 9.95715-61.12153 45.5293-61.12153c36.79766 0 45.52931 39.07647 45.52931 61.12153z" fill="#2f2e41"/><path d="M419.22131 247.88945a12.54331 12.54331 0 007.7483 17.604l2.2944 44.51578 18.6553-13.73043-5.03886-40.16792a12.61133 12.61133 0 00-23.65914-8.22141v-.00002zM623.73187 499.4647a12.54337 12.54337 0 00-5.47911-18.43681l3.30718-44.452-20.23013 11.28211-.03906 40.48272a12.61133 12.61133 0 0022.44112 11.124v-.00002zM530.567 713.445h15.292l7.275-58.986-22.57.001.003 58.985z" fill="#ffb8b8"/><path d="M526.66591 708.45251l30.11644-.00122h.00122a19.19222 19.19222 0 0119.19275 19.19245v.62369l-49.3095.00182-.00091-19.81674z" fill="#2f2e41"/><path fill="#ffb8b8" d="M627.862 713.445h15.293l7.275-58.986-22.57.001.002 58.985z"/><path d="M623.9614 708.45251l30.11645-.00122h.00122a19.19222 19.19222 0 0119.19275 19.19245v.62369l-49.3095.00182-.00092-19.81674z" fill="#2f2e41"/><path d="M619.13368 474.97294l-.6645-.1206c-5.57026-1.00862-11.20813-2.02821-16.16506-3.09408l-.4906-.106-.00183-.50187c-.085-22.61-.17024-45.21624-.2954-68.02719a143.79 143.79 0 01-14.37683-77.07433l.028-.28017.22993-.16445a14.78633 14.78633 0 0114.90154-1.15236 16.52117 16.52117 0 018.481 12.542c4.50774 24.5675 9.17444 50.00841 14.37926 75.07779l.01919.09136-.00883.0938c-1.92832 20.44531-3.92212 41.58739-5.9686 62.04366l-.06727.67244z" fill="#6c63ff"/><path d="M609.1644 692.42239l-.12151-.575c-7.15415-33.84-14.06011-61.39683-20.73888-88.04614-8.0035-31.93727-15.588-62.2008-23.24491-101.36409 1.05157 49.38716 3.49394 84.86922 6.30146 125.65386 1.26778 18.41588 2.5785 37.45911 3.90841 59.69021l.04081.67851-.67912-.01706c-23.93407-.61272-48.45559-2.09155-72.17009-3.52043l-.62734-.03776.04264-.62734c4.48977-66.178 5.89672-109.18092 6.92392-140.581 2.16738-66.24626 2.50054-76.42871 27.17707-132.49373.93523-2.12688 6.51584-8.41128 12.65133-7.45382l48.5506 7.55614.085.42757c1.37041 6.90078 8.16887 27.84065 17.57841 56.8227 20.11519 61.956 50.51334 155.58485 60.00967 211.39528l.10751.63222-.63466.09014c-13.793 1.96-23.72 4.0016-33.32016 5.975-9.08308 1.86863-18.475 3.79939-31.25937 5.707l-.58079.08774z" fill="#2f2e41"/><path d="M566.96763 428.798c-12.9583.00122-25.76646-4.49495-34.94821-13.24974a10.36322 10.36322 0 01-5.11255-8.05436 10.50795 10.50795 0 012.46826-8.52578c-9.00207-10.89629-18.2965-22.158-27.19351-33.62561l-.24576-.31672.28474-.54329c5.8209-11.12165 11.84-22.62091 17.62044-33.98375a5.93781 5.93781 0 014.84211-3.66661 6.90339 6.90339 0 015.3309 1.19134l.01157-.27651c.2415-5.75207.4833-11.50414.7315-16.95655l.02649-.58227.58288-.0134c11.11434-.24485 22.60691-.49944 33.89574-1.1682l.4297-.02558 5.59889 12.48961a45.79477 45.79477 0 0126.27412 5.333l.36971.19734-.04294.41661a254.28717 254.28717 0 001.4575 64.4702c-.1748 9.74393-.3627 19.70346-2.33974 27.6421l-.05756.23145-.19795.134a53.2643 53.2643 0 01-29.78633 8.88272z" fill="#6c63ff"/><path d="M519.27 374.61259l-.74581-.3423c-8.707-4.36826-17.44137-9.214-25.888-13.90022l-1.167-.2278c-22.23993-4.46449-34.4908-6.9227-54.55513-18.68874l-.1541-.09136-.08283-.15836c-10.04663-19.19184-12.849-35.9681-10.3399-61.89749l.05025-.52015.52015-.04141c2.175-.17663 5.72009-.29479 9.14825-.4093 3.33527-.11085 6.78414-.22657 8.89853-.39224l.49061-.039.15166.46776c2.62905 8.11893 4.86252 15.69334 7.22724 23.71237 2.4305 8.24317 4.94261 16.76286 8.00259 26.229 11.20356 3.21955 41.23778 2.25722 50.57637.98548 5.38906-.553 10.83325 1.93806 14.59031 6.634l.17328.21683-.04477.27409c-2.05592 12.54687-4.41668 25.168-6.69948 37.37383l-.15222.81501z" fill="#6c63ff"/><circle cx="627.977854" cy="1131.986528" r="30.636881" transform="rotate(-61.337 -135.15423584 771.57769775)" fill="#ffb8b8"/><path d="M512.14165 273.011h12.11748l5.34582-14.96854 1.06892 14.96854h5.79166l3.11844-8.73165.62369 8.73165h43.03455a32.4318 32.4318 0 00-32.4318-32.4318h-6.237a32.4318 32.4318 0 00-32.43176 32.4318z" fill="#2f2e41"/><path d="M767 728.858H1a1 1 0 010-2h766a1 1 0 010 2z" fill="#3f3d56"/></svg>